<svg width="180" height="168" viewBox="0 0 180 168" fill="none" xmlns="http://www.w3.org/2000/svg">
<g filter="url(#filter0_d_201_12)">
<path d="M75.0974 161.388C72.7777 161.381 70.4681 161.08 68.2228 160.493L67.7802 160.369L67.3697 160.162C52.5277 152.668 40.0063 142.769 30.1532 130.74C21.9969 120.724 15.638 109.353 11.3622 97.136C6.24903 82.5098 3.7891 67.0768 4.09983 51.5737C4.1061 51.2482 4.1114 50.997 4.1114 50.8239C4.1114 43.2877 8.26504 36.6753 14.6933 33.9778C19.6131 31.9133 64.283 13.4353 67.5105 12.1002C73.5888 9.03299 80.0732 11.5931 81.1109 12.0408C83.4385 12.9992 124.733 30.0091 133.657 34.2885C142.854 38.699 145.307 46.6224 145.307 50.6088C145.307 68.6563 142.204 85.5231 136.083 100.741C131.139 113.058 124.133 124.43 115.369 134.36C98.4599 153.524 81.5462 160.318 81.383 160.378C79.3616 161.078 77.2349 161.42 75.0974 161.388ZM71.1199 151.466C72.5862 151.797 75.9623 152.294 78.1627 151.485C80.9581 150.458 95.1145 143.065 108.343 128.073C126.621 107.358 135.895 81.3177 135.909 50.6753C135.876 50.0545 135.438 45.6268 129.616 42.8348C120.865 38.6381 77.9431 20.9626 77.5105 20.7845L77.3919 20.7339C76.4924 20.3543 73.6298 19.5547 71.6565 20.5961L71.2614 20.7816C70.783 20.9795 23.3654 40.5932 18.3083 42.7153C14.7707 44.1997 13.5102 47.8772 13.5102 50.8239C13.5102 51.0392 13.5047 51.3525 13.4969 51.7573C13.0927 72.7239 17.9103 124.316 71.1199 151.466Z" fill="#7272DE"/>
</g>
<path d="M69.5007 16.6548C69.5007 16.6548 21.8529 36.3745 16.7478 38.5179C11.6426 40.6614 9.09007 45.8056 9.09007 50.9499C9.09007 56.0942 5.26123 123.22 69.5007 155.675C69.5007 155.675 75.3311 157.301 79.7545 155.675C84.1779 154.05 140.334 126.614 140.334 50.7356C140.334 50.7356 140.334 43.0192 131.4 38.7323C122.466 34.4454 79.2721 16.6548 79.2721 16.6548C79.2721 16.6548 73.9677 14.297 69.5007 16.6548Z" fill="#EEEEFB"/>
<path opacity="0.1" d="M74.6905 31.5833V137.426C74.6905 137.426 26.5261 113.965 26.9523 52.2865L74.6905 31.5833Z" fill="#7272DE"/>
<ellipse cx="140.832" cy="37.1484" rx="31.33" ry="31.395" fill="white"/>
<g filter="url(#filter1_d_201_12)">
<path fill-rule="evenodd" clip-rule="evenodd" d="M155.496 30.2882L141.488 48.7266C140.911 49.4856 140.019 49.9343 139.068 49.9404H139.046C138.105 49.9404 137.216 49.5041 136.633 48.7604L129.175 39.2124C128.132 37.8787 128.365 35.9457 129.699 34.9009C131.033 33.853 132.959 34.0865 134.005 35.4264L139.013 41.8368L150.617 26.5668C151.641 25.2177 153.567 24.9534 154.917 25.9829C156.263 27.0124 156.524 28.9392 155.496 30.2882Z" fill="#7272DE"/>
</g>
<path d="M74.745 112.729C76.38 112.729 78.0513 111.875 78.0513 109.499V107.159C88.2244 105.934 94.5826 99.8446 94.5826 91.0446C94.5826 83.4328 90.0774 78.7914 80.9216 76.972L74.0547 75.5239C69.4405 74.5957 67.3332 72.8134 67.3332 70.0286C67.3332 66.9096 70.0581 64.4218 74.3454 64.4218C77.9786 64.4218 80.5946 65.61 83.6828 68.6176C85.4995 70.2142 86.9891 70.9197 88.951 70.9197C91.24 70.9197 93.1293 69.2117 93.1293 66.7611C93.1293 64.6818 92.0393 62.491 90.0047 60.5231C87.3161 57.8497 82.9925 56.1417 78.1603 55.5105V52.8371C78.1603 50.4607 76.489 49.6067 74.854 49.6067C73.219 49.6067 71.5478 50.4236 71.5478 52.8371V55.4362C61.738 56.3645 55.4161 62.3797 55.4161 70.9569C55.4161 78.5315 59.8487 83.3585 68.6411 85.215L75.4717 86.7374C80.7036 87.8885 82.7745 89.5222 82.7745 92.307C82.7745 95.8716 80.0132 98.2108 74.8903 98.2108C71.2208 98.2108 67.6602 96.6513 64.4266 93.6437C62.3556 91.8614 61.0476 91.3416 59.449 91.3416C56.8694 91.3416 54.7984 92.9754 54.7984 95.8716C54.7984 98.0994 55.9611 100.253 57.9957 102.147C61.0113 105.006 65.8799 106.751 71.4024 107.234V109.499C71.4024 111.875 73.1101 112.729 74.745 112.729Z" fill="#7272DE"/>
<defs>
<filter id="filter0_d_201_12" x="0.0736694" y="8.61432" width="149.234" height="158.776" filterUnits="userSpaceOnUse" color-interpolation-filters="sRGB">
<feFlood flood-opacity="0" result="BackgroundImageFix"/>
<feColorMatrix in="SourceAlpha" type="matrix" values="0 0 0 0 0 0 0 0 0 0 0 0 0 0 0 0 0 0 127 0" result="hardAlpha"/>
<feOffset dy="2"/>
<feGaussianBlur stdDeviation="2"/>
<feColorMatrix type="matrix" values="0 0 0 0 0 0 0 0 0 0 0 0 0 0 0 0 0 0 0.16 0"/>
<feBlend mode="normal" in2="BackgroundImageFix" result="effect1_dropShadow_201_12"/>
<feBlend mode="normal" in="SourceGraphic" in2="effect1_dropShadow_201_12" result="shape"/>
</filter>
<filter id="filter1_d_201_12" x="101.523" y="-1.22998" width="81.6007" height="81.7533" filterUnits="userSpaceOnUse" color-interpolation-filters="sRGB">
<feFlood flood-opacity="0" result="BackgroundImageFix"/>
<feColorMatrix in="SourceAlpha" type="matrix" values="0 0 0 0 0 0 0 0 0 0 0 0 0 0 0 0 0 0 127 0" result="hardAlpha"/>
<feOffset dy="2"/>
<feGaussianBlur stdDeviation="2"/>
<feColorMatrix type="matrix" values="0 0 0 0 0 0 0 0 0 0 0 0 0 0 0 0 0 0 0.16 0"/>
<feBlend mode="normal" in2="BackgroundImageFix" result="effect1_dropShadow_201_12"/>
<feBlend mode="normal" in="SourceGraphic" in2="effect1_dropShadow_201_12" result="shape"/>
</filter>
</defs>
</svg>
