<svg width="219" height="179" viewBox="0 0 219 179" fill="none" xmlns="http://www.w3.org/2000/svg">
<path d="M138.654 176.248L133.984 174.269L130.78 150.706H88.1201L84.6478 174.172L80.4699 176.275C80.27 176.376 80.1097 176.541 80.015 176.745C79.9202 176.949 79.8966 177.179 79.948 177.398C79.9993 177.617 80.1226 177.812 80.2979 177.951C80.4732 178.091 80.6901 178.167 80.9136 178.167H138.269C138.498 178.167 138.72 178.087 138.897 177.941C139.075 177.795 139.196 177.592 139.241 177.366C139.287 177.14 139.253 176.905 139.146 176.701C139.039 176.497 138.865 176.337 138.654 176.248Z" fill="#AEAEAE"/>
<path d="M214.449 153.094H4.89005C3.79055 153.091 2.73692 152.65 1.96033 151.866C1.18374 151.083 0.747597 150.021 0.747589 148.915V119.172H218.592V148.915C218.592 150.021 218.156 151.083 217.379 151.866C216.602 152.65 215.549 153.091 214.449 153.094Z" fill="#CCCCCC"/>
<path d="M218.811 133.229H0.556061V5.96628C0.557595 4.63072 1.0854 3.35032 2.0237 2.40595C2.96199 1.46159 4.23415 0.930391 5.56108 0.928894H213.806C215.133 0.93039 216.405 1.46158 217.343 2.40595C218.281 3.35031 218.809 4.63072 218.811 5.96628V133.229Z" fill="#3F3D56"/>
<path d="M205.775 123.992H13.5917C12.5688 123.991 11.588 123.582 10.8646 122.854C10.1413 122.126 9.73439 121.139 9.73325 120.109V14.0491C9.73439 13.0194 10.1413 12.0323 10.8646 11.3042C11.588 10.5761 12.5687 10.1665 13.5917 10.1653H205.775C206.798 10.1665 207.779 10.5761 208.502 11.3042C209.226 12.0323 209.633 13.0194 209.634 14.0491V120.109C209.633 121.139 209.226 122.126 208.502 122.854C207.779 123.582 206.798 123.991 205.775 123.992Z" fill="white"/>
<path d="M43.2418 43.7686H32.6811V44.7346H43.2418V43.7686Z" fill="#3BDC9C"/>
<path d="M51.2424 47.3116H32.6811V48.2781H51.2424V47.3116Z" fill="#E6E6E6"/>
<path d="M51.2424 50.5328H32.6811V51.499H51.2424V50.5328Z" fill="#E6E6E6"/>
<path d="M30.7609 43.7686H22.7604V51.8212H30.7609V43.7686Z" fill="#3BDC9C"/>
<path d="M43.2418 64.3829H32.6811V65.3494H43.2418V64.3829Z" fill="#3BDC9C"/>
<path d="M51.2424 67.9265H32.6811V68.8925H51.2424V67.9265Z" fill="#E6E6E6"/>
<path d="M51.2424 71.4694H32.6811V72.4354H51.2424V71.4694Z" fill="#E6E6E6"/>
<path d="M30.7609 64.3829H22.7604V72.4353H30.7609V64.3829Z" fill="#3BDC9C"/>
<path d="M43.2418 85.3195H32.6811V86.286H43.2418V85.3195Z" fill="#3BDC9C"/>
<path d="M51.2424 88.5406H32.6811V89.8291H51.2424V88.5406Z" fill="#E6E6E6"/>
<path d="M51.2424 92.0837H32.6811V93.05H51.2424V92.0837Z" fill="#E6E6E6"/>
<path d="M30.7609 85.3195H22.7604V93.05H30.7609V85.3195Z" fill="#3BDC9C"/>
<path d="M100.89 68.8132H100.587V69.7259H100.89V68.8132Z" fill="#E5E5E5"/>
<path d="M100.89 89.178H100.587V87.2327H100.89V89.178ZM100.89 85.2876H100.587V83.3423H100.89V85.2876ZM100.89 81.3971H100.587V79.4519H100.89V81.3971ZM100.89 77.5067H100.587V75.5615H100.89V77.5067ZM100.89 73.6163H100.587V71.6711H100.89V73.6163Z" fill="#E5E5E5"/>
<path d="M100.89 91.1234H100.587V92.0363H100.89V91.1234Z" fill="#E5E5E5"/>
<path d="M133.997 68.8132H133.695V69.7259H133.997V68.8132Z" fill="#E5E5E5"/>
<path d="M133.997 89.178H133.695V87.2327H133.997V89.178ZM133.997 85.2876H133.695V83.3423H133.997V85.2876ZM133.997 81.3971H133.695V79.4519H133.997V81.3971ZM133.997 77.5067H133.695V75.5615H133.997V77.5067ZM133.997 73.6163H133.695V71.6711H133.997V73.6163Z" fill="#E5E5E5"/>
<path d="M133.997 91.1234H133.695V92.0363H133.997V91.1234Z" fill="#E5E5E5"/>
<path d="M150.698 50.9532H150.395V51.8662H150.698V50.9532Z" fill="#E5E5E5"/>
<path d="M150.698 89.2536H150.395V87.3842H150.698V89.2536ZM150.698 85.5149H150.395V83.6455H150.698V85.5149ZM150.698 81.7761H150.395V79.9068H150.698V81.7761ZM150.698 78.0374H150.395V76.168H150.698V78.0374ZM150.698 74.2987H150.395V72.4293H150.698V74.2987ZM150.698 70.5599H150.395V68.6906H150.698V70.5599ZM150.698 66.8212H150.395V64.9519H150.698V66.8212ZM150.698 63.0825H150.395V61.2131H150.698V63.0825ZM150.698 59.3437H150.395V57.4744H150.698V59.3437ZM150.698 55.605H150.395V53.7357H150.698V55.605Z" fill="#E5E5E5"/>
<path d="M150.698 91.1234H150.395V92.0363H150.698V91.1234Z" fill="#E5E5E5"/>
<path d="M167.232 43.6495H166.929V44.5627H167.232V43.6495Z" fill="#E5E5E5"/>
<path d="M167.232 89.2609H166.929V87.3984H167.232V89.2609ZM167.232 85.536H166.929V83.6736H167.232V85.536ZM167.232 81.8112H166.929V79.9487H167.232V81.8112ZM167.232 78.0863H166.929V76.2238H167.232V78.0863ZM167.232 74.3614H166.929V72.499H167.232V74.3614ZM167.232 70.6366H166.929V68.7741H167.232V70.6366ZM167.232 66.9117H166.929V65.0492H167.232V66.9117ZM167.232 63.1868H166.929V61.3244H167.232V63.1868ZM167.232 59.462H166.929V57.5995H167.232V59.462ZM167.232 55.7371H166.929V53.8747H167.232V55.7371ZM167.232 52.0123H166.929V50.1498H167.232V52.0123ZM167.232 48.2874H166.929V46.4249H167.232V48.2874Z" fill="#E5E5E5"/>
<path d="M167.232 91.1234H166.929V92.0363H167.232V91.1234Z" fill="#E5E5E5"/>
<path d="M117.519 56.5833H117.216V57.4963H117.519V56.5833Z" fill="#E5E5E5"/>
<path d="M117.519 89.3533H117.216V87.5835H117.519V89.3533ZM117.519 85.8137H117.216V84.0438H117.519V85.8137ZM117.519 82.274H117.216V80.5042H117.519V82.274ZM117.519 78.7343H117.216V76.9645H117.519V78.7343ZM117.519 75.1946H117.216V73.4248H117.519V75.1946ZM117.519 71.6549H117.216V69.8851H117.519V71.6549ZM117.519 68.1152H117.216V66.3454H117.519V68.1152ZM117.519 64.5755H117.216V62.8057H117.519V64.5755ZM117.519 61.0358H117.216V59.266H117.519V61.0358Z" fill="#E5E5E5"/>
<path d="M117.519 91.1234H117.216V92.0363H117.519V91.1234Z" fill="#E5E5E5"/>
<path d="M184.001 92.4602H83.9041C83.821 92.4602 83.7414 92.4269 83.6826 92.3678C83.6239 92.3087 83.5909 92.2285 83.5909 92.1449V43.8563C83.5909 43.7727 83.6239 43.6925 83.6826 43.6334C83.7414 43.5742 83.821 43.541 83.9041 43.541C83.9872 43.541 84.0669 43.5742 84.1256 43.6334C84.1844 43.6925 84.2174 43.7727 84.2174 43.8563V91.8296H184.001C184.084 91.8296 184.164 91.8628 184.222 91.9219C184.281 91.981 184.314 92.0612 184.314 92.1449C184.314 92.2285 184.281 92.3087 184.222 92.3678C184.164 92.4269 184.084 92.4602 184.001 92.4602V92.4602Z" fill="#3F3D56"/>
<path d="M133.983 69.237L117.341 56.6906L100.926 69.0657L100.55 68.5609L117.341 55.9028L133.904 68.3896L150.363 50.2604L150.429 50.2334L167.032 43.5004L167.266 44.0856L150.729 50.7916L133.983 69.237Z" fill="#3F3D56"/>
<path d="M100.738 70.7048C101.776 70.7048 102.618 69.8578 102.618 68.813C102.618 67.7681 101.776 66.9211 100.738 66.9211C99.7004 66.9211 98.8589 67.7681 98.8589 68.813C98.8589 69.8578 99.7004 70.7048 100.738 70.7048Z" fill="#3BDC9C"/>
<path d="M117.341 58.4086C118.379 58.4086 119.221 57.5615 119.221 56.5167C119.221 55.4718 118.379 54.6248 117.341 54.6248C116.303 54.6248 115.461 55.4718 115.461 56.5167C115.461 57.5615 116.303 58.4086 117.341 58.4086Z" fill="#3BDC9C"/>
<path d="M133.944 70.7048C134.982 70.7048 135.823 69.8578 135.823 68.813C135.823 67.7681 134.982 66.9211 133.944 66.9211C132.906 66.9211 132.064 67.7681 132.064 68.813C132.064 69.8578 132.906 70.7048 133.944 70.7048Z" fill="#3BDC9C"/>
<path d="M150.546 52.4178C151.584 52.4178 152.426 51.5709 152.426 50.5261C152.426 49.4813 151.584 48.6343 150.546 48.6343C149.508 48.6343 148.667 49.4813 148.667 50.5261C148.667 51.5709 149.508 52.4178 150.546 52.4178Z" fill="#3BDC9C"/>
<path d="M167.149 45.4813C168.187 45.4813 169.028 44.6344 169.028 43.5897C169.028 42.545 168.187 41.6981 167.149 41.6981C166.111 41.6981 165.269 42.545 165.269 43.5897C165.269 44.6344 166.111 45.4813 167.149 45.4813Z" fill="#3BDC9C"/>
<path d="M64.7704 10.1653H64.1295V123.992H64.7704V10.1653Z" fill="#E5E5E5"/>
</svg>
