<svg width="209" height="189" viewBox="0 0 209 189" fill="none" xmlns="http://www.w3.org/2000/svg">
<path d="M32.4838 152.861H10.2115C9.70905 152.86 9.21244 152.968 8.75638 153.179C8.30033 153.389 7.89585 153.696 7.57124 154.079C6.74975 153.928 5.90417 153.974 5.1039 154.213C4.30363 154.451 3.5715 154.876 2.9676 155.452C2.36369 156.027 1.90524 156.737 1.62987 157.524C1.3545 158.311 1.27007 159.151 1.3835 159.977C1.49693 160.803 1.80498 161.59 2.28239 162.273C2.75979 162.957 3.39292 163.518 4.12982 163.91C4.86671 164.303 5.68635 164.515 6.52146 164.53C7.35658 164.545 8.18335 164.362 8.93392 163.997L11.5358 185.796C11.7547 186.506 12.1958 187.127 12.7945 187.568C13.3932 188.009 14.1179 188.247 14.8622 188.247H29.3428C30.087 188.247 30.8117 188.009 31.4103 187.568C32.0089 187.127 32.45 186.506 32.6688 185.796L35.8102 157.354C35.9703 156.835 36.006 156.285 35.9145 155.75C35.823 155.214 35.6068 154.707 35.2832 154.27C34.9596 153.833 34.5378 153.478 34.0516 153.233C33.5654 152.989 33.0284 152.861 32.4838 152.861ZM6.63158 163.025C5.63083 163.025 4.67106 162.629 3.96342 161.923C3.25578 161.217 2.85823 160.259 2.85823 159.261C2.85823 158.262 3.25578 157.305 3.96342 156.599C4.67106 155.893 5.63083 155.496 6.63158 155.496C6.70049 155.496 6.76461 155.513 6.83278 155.516C6.6827 156.122 6.70092 156.758 6.88547 157.354L8.4792 162.523C7.91774 162.848 7.28083 163.021 6.63158 163.025Z" fill="white"/>
<path d="M91.5865 145.277L76.9195 89.9505L75.6708 85.254C75.3944 84.214 75.7151 83.1065 76.5046 82.3753C76.7097 82.1853 76.9411 82.0259 77.1917 81.902L102.822 69.2341C103.694 68.8032 104.657 68.5907 105.63 68.6149L141.843 69.5146C142.744 69.537 143.627 69.7618 144.429 70.1724L162.931 79.6483C164.907 80.6607 166.163 82.6822 166.195 84.9029L166.267 89.9505L167.389 167.281C167.396 167.721 167.451 168.16 167.553 168.588L170.207 179.693C171.108 183.465 168.249 187.088 164.371 187.088H95.4901C91.6717 187.088 88.8247 183.568 89.6226 179.834L94.2872 158.002C94.4843 157.079 94.4611 156.123 94.2194 155.211L91.5865 145.277Z" fill="#F3A447"/>
<path d="M183.701 177.948C184.409 181.652 181.573 185.088 177.802 185.088H168.433C165.438 185.088 162.902 182.879 162.49 179.913L157.241 142.099C157.195 141.767 157.177 141.432 157.186 141.098L158.752 87.9508L158.878 83.7352C158.931 81.9527 160.258 80.4666 162.023 80.2126C162.97 80.0763 163.939 80.3082 164.69 80.9007C167.227 82.901 169.135 84.9878 170.76 87.9508C173.41 92.5521 175.617 99.1221 175.136 107.933C175.124 108.149 175.122 108.362 175.131 108.579C175.208 110.398 175.564 119.582 175.14 125.915C174.848 130.268 179.414 155.521 183.701 177.948Z" fill="#F3A447"/>
<path d="M91.6631 144.724L91.5865 145.277L85.7854 187.088H60.6423C62.6584 163.397 65.0283 133.779 64.7099 129.033C64.2384 121.981 64.7335 111.377 64.7335 111.377C64.1322 101.655 66.8029 94.6442 69.7681 89.9508C71.2599 87.5649 73.0975 85.4125 75.2212 83.5636C75.6922 83.1512 76.1884 82.7681 76.7068 82.4167L80.8807 83.7695L81.9714 89.9508L91.6631 144.724Z" fill="#F3A447"/>
<path d="M94.5612 38.2217C94.5612 43.5645 96.1493 48.7873 99.1246 53.2296C102.1 57.672 106.329 61.1344 111.276 63.179C116.224 65.2236 121.668 65.7585 126.921 64.7162C132.173 63.6739 136.998 61.1011 140.785 57.3232C144.572 53.5453 147.151 48.7319 148.195 43.4918C149.24 38.2517 148.704 32.8202 146.654 27.8841C144.605 22.948 141.135 18.7291 136.682 15.7608C132.229 12.7925 126.994 11.2082 121.638 11.2082C114.475 11.1904 107.598 14.0122 102.52 19.053C97.442 24.0938 94.5791 30.9406 94.5612 38.0871C94.5611 38.132 94.5611 38.1769 94.5612 38.2217Z" fill="#FFC9C9"/>
<path d="M208.126 182.78C208.126 184.322 207.512 185.8 206.42 186.891C205.327 187.981 203.845 188.593 202.299 188.593H46.4171C44.8716 188.593 43.3894 187.981 42.2965 186.891C41.2036 185.8 40.5897 184.322 40.5897 182.78C40.5897 181.238 41.2036 179.759 42.2965 178.669C43.3893 177.578 44.8716 176.966 46.4171 176.966H48.1473C48.0483 176.62 47.9968 176.262 47.9941 175.901V96.5057C47.9941 95.1666 48.5274 93.8824 49.4765 92.9355C50.4256 91.9886 51.7129 91.4566 53.0552 91.4566H195.661C197.003 91.4566 198.291 91.9885 199.24 92.9354C200.189 93.8823 200.722 95.1665 200.722 96.5056V175.901C200.722 176.262 200.671 176.62 200.569 176.966H202.299C203.064 176.966 203.822 177.116 204.529 177.409C205.236 177.701 205.878 178.129 206.42 178.669C206.961 179.209 207.39 179.85 207.683 180.555C207.976 181.26 208.126 182.016 208.126 182.78Z" fill="#B1650C"/>
<path d="M152.31 15.7824C150.127 14.1009 148.353 11.9498 147.119 9.48923C146.678 8.55402 146.071 7.70669 145.326 6.98874L140.206 10.917L143.335 5.48014C135.321 0.647623 119.673 3.21424 119.673 3.21424C103.395 -5.43359 97.4173 5.36135 95.3334 12.2073C94.508 14.6847 93.0523 16.9061 91.1087 18.6543C87.0932 22.4741 93.4165 29.904 93.4165 29.904V30.4291L94.9259 40.6564C94.9259 40.6564 96.4352 33.8803 100.418 29.1187C102.929 26.1166 107.017 24.3317 108.915 24.3686C133.414 24.8456 138.052 25.8134 138.052 25.8134C138.052 25.8134 142.2 28.0364 144.032 28.9702C149.951 31.9879 148.507 42.9151 148.507 42.9151L152.931 23.5212C153.952 18.8201 153.385 16.6631 152.31 15.7824Z" fill="#2F2E41"/>
</svg>
