<svg width="141" height="246" viewBox="0 0 141 246" fill="none" xmlns="http://www.w3.org/2000/svg">
<path d="M97.3189 239.919H92.6078L90.3667 212.959L97.32 212.96L97.3189 239.919Z" fill="#9E616A"/>
<path d="M100.3 245.91L81.4267 245.91V245.627C81.4268 243.319 82.2008 241.105 83.5784 239.473C84.956 237.841 86.8244 236.924 88.7726 236.924H88.773L100.3 236.924L100.3 245.91Z" fill="#2F2E41"/>
<path d="M62.5525 239.919H57.168L54.6067 212.959L62.5533 212.96L62.5525 239.919Z" fill="#9E616A"/>
<path d="M64.5397 245.91L45.6667 245.91V245.627C45.6668 243.319 46.4408 241.105 47.8184 239.473C49.196 237.841 51.0644 236.924 53.0126 236.924H53.013L64.54 236.924L64.5397 245.91Z" fill="#2F2E41"/>
<path d="M47.6533 91.648L39.7628 90.1417L37.2136 95.2111L9.78105 103.85L9.85531 104.318C9.07953 103.317 8.06101 102.656 6.95389 102.434C5.84677 102.212 4.71133 102.442 3.71937 103.089C2.7274 103.735 1.93293 104.763 1.45618 106.018C0.979427 107.272 0.846341 108.684 1.07707 110.04C1.30781 111.396 1.88979 112.622 2.73496 113.533C3.58012 114.444 4.64246 114.99 5.76119 115.089C6.87993 115.187 7.9942 114.833 8.93533 114.079C9.87647 113.325 10.5932 112.213 10.9772 110.911L44.1988 102.351L47.6533 91.648Z" fill="#9E616A"/>
<path d="M128.785 86.097C128.119 86.0976 127.459 86.2419 126.841 86.5222L127.002 86.202L91.2656 65.1788L86.3933 74.1431L123.548 92.9138C123.683 94.0594 124.105 95.1365 124.764 96.0162C125.423 96.8959 126.29 97.541 127.263 97.8743C128.235 98.2076 129.271 98.215 130.247 97.8957C131.224 97.5764 132.098 96.9438 132.767 96.0736C133.435 95.2034 133.869 94.1325 134.017 92.9889C134.165 91.8453 134.02 90.6775 133.6 89.6251C133.18 88.5727 132.502 87.6803 131.648 87.0546C130.795 86.4289 129.8 86.0965 128.785 86.097H128.785Z" fill="#9E616A"/>
<path d="M72.3836 29.5323C73.765 19.4512 67.9842 9.95273 59.4719 8.3168C50.9596 6.68087 42.9393 13.527 41.5579 23.6081C40.1765 33.6891 45.9573 43.1876 54.4696 44.8235C62.9819 46.4595 71.0023 39.6133 72.3836 29.5323Z" fill="#2F2E41"/>
<path d="M56.5933 45.2085C62.0794 45.2085 66.5267 39.8439 66.5267 33.2263C66.5267 26.6088 62.0794 21.2442 56.5933 21.2442C51.1073 21.2442 46.66 26.6088 46.66 33.2263C46.66 39.8439 51.1073 45.2085 56.5933 45.2085Z" fill="#A0616A"/>
<path d="M56.5933 28.2337C62.628 28.2337 67.52 24.8809 67.52 20.7449C67.52 16.6089 62.628 13.256 56.5933 13.256C50.5587 13.256 45.6667 16.6089 45.6667 20.7449C45.6667 24.8809 50.5587 28.2337 56.5933 28.2337Z" fill="#2F2E41"/>
<path d="M58.0833 16.2515C61.6493 16.2515 64.54 12.6751 64.54 8.26341C64.54 3.85173 61.6493 0.27536 58.0833 0.27536C54.5174 0.27536 51.6267 3.85173 51.6267 8.26341C51.6267 12.6751 54.5174 16.2515 58.0833 16.2515Z" fill="#2F2E41"/>
<path d="M52.1893 62.4463L52.7585 55.8586C52.9005 54.2142 53.7074 52.6923 55.0848 51.7829C58.4006 49.5938 64.7359 46.1583 67.3725 49.7966L89.1907 94.7459C89.1907 94.7459 102.754 100.552 102.274 122.722L101.626 229.885L86.2465 231.915L76.9075 148.365L68.4696 234.927L50.5647 234.252L52.1756 177.226L60.7133 121.946L60.6315 103.603L56.8714 96.1999C56.8714 96.1999 49.9834 92.8681 49.7908 83.4523L49.64 70.2168L52.1893 62.4463Z" fill="#ECF5FF"/>
<path d="M65.5333 53.1168C63.8754 51.4786 65.4786 48.8243 67.6779 49.596C79.4879 53.7395 99.0691 61.4949 97.1671 66.7844C94.4604 74.3114 89.3855 76.6884 89.3855 76.6884L69.7624 67.5767L65.5333 53.1168Z" fill="#ECF5FF"/>
<path d="M54.8888 63.2496L52.3011 60.1863C52.3011 60.1863 31.6609 92.3366 37.9025 95.9288C44.1441 99.521 49.3852 97.6351 49.3852 97.6351L59.5733 76.8981L54.8888 63.2496Z" fill="#ECF5FF"/>
<path d="M14.2265 163.672C14.7973 167.105 18.1594 169.334 21.5436 168.523L133.602 141.667C136.666 140.933 138.64 137.955 138.123 134.848L129.753 84.5107C129.183 81.0778 125.821 78.849 122.436 79.66L10.3775 106.516C7.31445 107.25 5.34047 110.227 5.85709 113.334L14.2265 163.672Z" fill="white"/>
<path d="M139.102 135.557C139.626 138.674 137.643 141.663 134.568 142.391L19.9446 169.544C16.5687 170.344 13.2202 168.122 12.6447 164.701L3.88504 112.625C3.36083 109.509 5.34376 106.52 8.41886 105.791L123.042 78.6385C126.418 77.8388 129.767 80.0604 130.342 83.4816L139.102 135.557ZM14.0056 162.28C14.5811 165.702 17.9296 167.923 21.3055 167.124L132.528 140.776C135.603 140.048 137.586 137.059 137.062 133.942L128.981 85.9023C128.406 82.481 125.057 80.2594 121.681 81.0591L10.4587 107.407C7.38357 108.135 5.40063 111.124 5.92484 114.24L14.0056 162.28Z" fill="#E4E4E4"/>
<path d="M120.16 98.8267L19.6875 122.579L20.2104 125.682L120.683 101.929L120.16 98.8267Z" fill="#E4E4E4"/>
<path d="M122.196 110.907L21.7234 134.659L22.2463 137.761L122.719 114.009L122.196 110.907Z" fill="#E4E4E4"/>
<path d="M124.244 123.056L23.7714 146.809L24.2943 149.911L124.767 126.159L124.244 123.056Z" fill="#E4E4E4"/>
<path d="M71.7147 117.315L68.297 118.08C68.0474 118.135 67.7882 118.078 67.5765 117.919C67.3648 117.761 67.2177 117.515 67.1676 117.236L65.5517 108.168C65.5022 107.888 65.5537 107.598 65.695 107.361C65.8363 107.124 66.0558 106.959 66.3053 106.903L69.723 106.139C69.9727 106.083 70.2318 106.141 70.4435 106.299C70.6553 106.457 70.8023 106.703 70.8524 106.983L72.4683 116.05C72.5178 116.33 72.4663 116.62 72.325 116.857C72.1838 117.095 71.9643 117.259 71.7147 117.315Z" fill="#00A1FF"/>
<path d="M111.448 121.179L108.03 122.07C107.781 122.135 107.522 122.068 107.31 121.883C107.098 121.698 106.951 121.412 106.901 121.085L105.285 110.507C105.236 110.18 105.287 109.842 105.428 109.565C105.57 109.288 105.789 109.096 106.039 109.031L109.456 108.139C109.706 108.074 109.965 108.142 110.177 108.326C110.389 108.511 110.536 108.798 110.586 109.124L112.202 119.703C112.251 120.029 112.2 120.368 112.058 120.644C111.917 120.921 111.698 121.113 111.448 121.179Z" fill="#00A1FF"/>
</svg>
