<svg width="30" height="47" viewBox="0 0 30 47" fill="none" xmlns="http://www.w3.org/2000/svg">
<path d="M15.0537 46.9507C16.2617 46.9507 17.3355 46.2796 17.3355 44.6689V42.5213C24.5569 41.7427 29.0669 37.5012 29.0669 31.3268C29.0669 26.0114 25.8723 22.79 19.2415 21.3403L13.792 20.1054C10.3826 19.3538 8.71819 17.7967 8.71819 15.5149C8.71819 12.7767 11.0806 10.7901 14.7852 10.7901C17.7919 10.7901 19.8858 11.8102 22.2214 14.4142C23.4026 15.6491 24.3153 16.1055 25.5502 16.1055C27.0535 16.1055 28.2079 15.0585 28.2079 13.5015C28.2079 11.9982 27.322 10.3606 25.8186 8.8841C23.8321 7.00493 20.8523 5.77005 17.4966 5.34053V3.11237C17.4966 1.52849 16.4228 0.857361 15.1879 0.857361C13.9799 0.857361 12.9061 1.50165 12.9061 3.11237V5.25999C5.95312 5.90428 1.52365 10.0653 1.52365 16.025C1.52365 21.2329 4.71824 24.696 10.839 26.0651L16.2886 27.3268C20.2617 28.2664 21.8992 29.6624 21.8992 32.0248C21.8992 35.0851 19.51 37.018 15.2416 37.018C12.047 37.018 9.38932 35.8099 6.97325 33.2059C5.60414 31.8368 4.85247 31.5415 3.83235 31.5415C2.19478 31.5415 0.9599 32.5885 0.9599 34.3871C0.9599 35.971 1.87264 37.6086 3.5102 39.0314C5.65783 40.9911 9.01349 42.1991 12.745 42.5481V44.6689C12.745 46.2796 13.8188 46.9507 15.0537 46.9507Z" fill="#3BDC9C"/>
</svg>
