<svg width="51" height="51" viewBox="0 0 51 51" fill="none" xmlns="http://www.w3.org/2000/svg">
<path fill-rule="evenodd" clip-rule="evenodd" d="M24.1667 9.66667C26.836 9.66667 29 7.50271 29 4.83333C29 2.16396 26.836 0 24.1667 0C21.4973 0 19.3333 2.16396 19.3333 4.83333C19.3333 7.50271 21.4973 9.66667 24.1667 9.66667ZM3.625 9.66667C5.62703 9.66667 7.25 8.0437 7.25 6.04167C7.25 4.03963 5.62703 2.41667 3.625 2.41667C1.62297 2.41667 0 4.03963 0 6.04167C0 8.0437 1.62297 9.66667 3.625 9.66667ZM14.5 14.5C14.5 15.8347 13.418 16.9167 12.0833 16.9167C10.7486 16.9167 9.66667 15.8347 9.66667 14.5C9.66667 13.1653 10.7486 12.0833 12.0833 12.0833C13.418 12.0833 14.5 13.1653 14.5 14.5ZM50.7462 28.9351C50.7481 28.8975 50.75 28.8599 50.75 28.8204C50.75 28.0159 50.2369 27.2941 49.4644 27.0385L19.3914 17.0124C18.7166 16.7888 17.9723 16.9636 17.4686 17.4673C16.963 17.9711 16.7863 18.7154 17.0156 19.3902L27.0393 49.4647C27.3062 50.2729 28.0844 50.7974 28.9358 50.7466C29.7854 50.6959 30.494 50.0793 30.6612 49.2448L32.9472 38.0044L42.1487 46.7345C43.6011 48.1125 45.8955 48.0521 47.2735 46.5998C48.6514 45.1474 48.5911 42.853 47.1387 41.475L38.1246 32.9227L49.2445 30.6625C50.079 30.4933 50.6955 29.7847 50.7462 28.9351ZM14.5 29C14.5 31.6694 12.336 33.8333 9.66667 33.8333C6.99729 33.8333 4.83333 31.6694 4.83333 29C4.83333 26.3306 6.99729 24.1667 9.66667 24.1667C12.336 24.1667 14.5 26.3306 14.5 29Z" fill="#7272DE"/>
</svg>
