<svg width="50" height="44" viewBox="0 0 50 44" fill="none" xmlns="http://www.w3.org/2000/svg">
<path fill-rule="evenodd" clip-rule="evenodd" d="M17.75 19.5833C23.0812 19.5833 27.4167 15.2478 27.4167 9.91667C27.4167 4.5855 23.0812 0.25 17.75 0.25C12.4188 0.25 8.08334 4.5855 8.08334 9.91667C8.08334 15.2478 12.4188 19.5833 17.75 19.5833ZM37.0833 24.4167C41.0805 24.4167 44.3333 21.1638 44.3333 17.1667C44.3333 13.1695 41.0805 9.91667 37.0833 9.91667C33.0862 9.91667 29.8333 13.1695 29.8333 17.1667C29.8333 21.1638 33.0862 24.4167 37.0833 24.4167ZM49.1667 38.9167C49.1667 40.2507 48.0864 41.3333 46.75 41.3333H34.6667C34.6667 42.6673 33.5864 43.75 32.25 43.75H3.25001C1.91359 43.75 0.833344 42.6673 0.833344 41.3333C0.833344 32.005 8.42409 24.4167 17.75 24.4167C22.4069 24.4167 26.6264 26.3089 29.6883 29.3612C31.7884 27.7372 34.3743 26.8333 37.0833 26.8333C43.7461 26.8333 49.1667 32.2539 49.1667 38.9167Z" fill="#F3A447"/>
</svg>
