<svg width="58" height="58" viewBox="0 0 58 58" fill="none" xmlns="http://www.w3.org/2000/svg">
<path d="M49.5 8.5C43.8333 2.83333 37 0 29 0C20.8788 0 14.0455 2.83333 8.5 8.5C2.83333 14.1667 0 21 0 29C0 37.1212 2.83333 43.9545 8.5 49.5C14.0455 55.1667 20.8788 58 29 58C37 58 43.8333 55.1667 49.5 49.5C55.1667 43.9545 58 37.1212 58 29C58 21 55.1667 14.1667 49.5 8.5ZM35.5455 20.6818C35.5455 18.2273 36.7576 17 39.1818 17C40.1212 17 40.9545 17.3788 41.6818 18.1364C42.4091 18.8333 42.7727 19.6818 42.7727 20.6818C42.7727 23.1061 41.5758 24.3182 39.1818 24.3182C36.7576 24.3182 35.5455 23.1061 35.5455 20.6818ZM21.3636 18.1364C22.0909 18.8333 22.4545 19.6818 22.4545 20.6818C22.4545 23.1061 21.2424 24.3182 18.8182 24.3182C16.3939 24.3182 15.1818 23.1061 15.1818 20.6818C15.1818 18.2273 16.3939 17 18.8182 17C19.8182 17 20.6667 17.3788 21.3636 18.1364ZM17.4545 43.0909C14.2727 39.8788 12.6818 36.0152 12.6818 31.5C17.0152 30.803 22.0455 30.3788 27.7727 30.2273C33.2879 30.1364 39.1212 30.5606 45.2727 31.5C45.2727 36.0152 43.7121 39.8788 40.5909 43.0909C37.3182 46.2727 33.4545 47.8636 29 47.8636C24.4242 47.8636 20.5758 46.2727 17.4545 43.0909Z" fill="#00A1FF"/>
</svg>
