<svg width="180" height="168" viewBox="0 0 180 168" fill="none" xmlns="http://www.w3.org/2000/svg"><g filter="url(#filter0_d_201_12)"><path d="M75.097 161.388a27.507 27.507 0 01-6.874-.895l-.443-.124-.41-.207c-14.842-7.494-27.364-17.393-37.217-29.422a111.595 111.595 0 01-18.79-33.604A130.174 130.174 0 014.1 51.574c.006-.326.011-.577.011-.75 0-7.536 4.154-14.149 10.582-16.846 4.92-2.065 49.59-20.543 52.817-21.878 6.079-3.067 12.563-.507 13.6-.06 2.329.96 43.623 17.97 52.547 22.248 9.197 4.411 11.65 12.334 11.65 16.32 0 18.048-3.103 34.915-9.224 50.133a116.237 116.237 0 01-20.714 33.619c-16.91 19.164-33.823 25.958-33.986 26.018a18.367 18.367 0 01-6.286 1.01zm-3.977-9.922c1.466.331 4.842.828 7.043.019 2.795-1.027 16.952-8.42 30.18-23.412 18.278-20.715 27.552-46.755 27.566-77.398-.033-.62-.471-5.048-6.293-7.84-8.751-4.197-51.673-21.872-52.106-22.05l-.118-.051c-.9-.38-3.762-1.18-5.736-.138l-.395.186c-.478.198-47.896 19.811-52.953 21.933-3.537 1.485-4.798 5.162-4.798 8.109 0 .215-.005.529-.013.933-.404 20.967 4.413 72.559 57.623 99.709z" fill="#7272DE"/></g><path d="M69.5 16.655s-47.647 19.72-52.752 21.863C11.643 40.66 9.09 45.806 9.09 50.95S5.261 123.22 69.5 155.675c0 0 5.831 1.626 10.254 0 4.424-1.625 60.58-29.061 60.58-104.94 0 0 0-7.716-8.934-12.003S79.272 16.655 79.272 16.655s-5.304-2.358-9.771 0z" fill="#EEEEFB"/><path opacity=".1" d="M74.69 31.583v105.843s-48.164-23.461-47.738-85.14l47.739-20.703z" fill="#7272DE"/><ellipse cx="140.832" cy="37.148" rx="31.33" ry="31.395" fill="#fff"/><g filter="url(#filter1_d_201_12)"><path fill-rule="evenodd" clip-rule="evenodd" d="M155.496 30.288l-14.008 18.439a3.064 3.064 0 01-2.42 1.213h-.022c-.941 0-1.83-.436-2.413-1.18l-7.458-9.548a3.075 3.075 0 01.524-4.311 3.059 3.059 0 014.306.525l5.008 6.41 11.604-15.27a3.065 3.065 0 014.3-.583 3.075 3.075 0 01.579 4.305z" fill="#7272DE"/></g><path d="M74.745 112.729c1.635 0 3.306-.854 3.306-3.23v-2.34c10.173-1.225 16.532-7.314 16.532-16.114 0-7.612-4.506-12.254-13.661-14.073l-6.867-1.448c-4.615-.928-6.722-2.71-6.722-5.495 0-3.12 2.725-5.607 7.012-5.607 3.634 0 6.25 1.188 9.338 4.196 1.816 1.596 3.306 2.302 5.268 2.302 2.289 0 4.178-1.708 4.178-4.159 0-2.08-1.09-4.27-3.124-6.238-2.689-2.673-7.012-4.381-11.845-5.013v-2.673c0-2.376-1.671-3.23-3.306-3.23s-3.306.817-3.306 3.23v2.6c-9.81.928-16.132 6.943-16.132 15.52 0 7.575 4.433 12.402 13.225 14.258l6.83 1.522c5.233 1.151 7.303 2.785 7.303 5.57 0 3.565-2.76 5.904-7.884 5.904-3.67 0-7.23-1.56-10.463-4.567-2.071-1.783-3.38-2.302-4.978-2.302-2.58 0-4.65 1.633-4.65 4.53 0 2.227 1.162 4.381 3.197 6.275 3.015 2.859 7.884 4.604 13.406 5.087v2.265c0 2.376 1.708 3.23 3.343 3.23z" fill="#7272DE"/><defs><filter id="filter0_d_201_12" x=".074" y="8.614" width="149.234" height="158.776" filterUnits="userSpaceOnUse" color-interpolation-filters="sRGB"><feFlood flood-opacity="0" result="BackgroundImageFix"/><feColorMatrix in="SourceAlpha" values="0 0 0 0 0 0 0 0 0 0 0 0 0 0 0 0 0 0 127 0" result="hardAlpha"/><feOffset dy="2"/><feGaussianBlur stdDeviation="2"/><feColorMatrix values="0 0 0 0 0 0 0 0 0 0 0 0 0 0 0 0 0 0 0.16 0"/><feBlend in2="BackgroundImageFix" result="effect1_dropShadow_201_12"/><feBlend in="SourceGraphic" in2="effect1_dropShadow_201_12" result="shape"/></filter><filter id="filter1_d_201_12" x="101.523" y="-1.23" width="81.601" height="81.753" filterUnits="userSpaceOnUse" color-interpolation-filters="sRGB"><feFlood flood-opacity="0" result="BackgroundImageFix"/><feColorMatrix in="SourceAlpha" values="0 0 0 0 0 0 0 0 0 0 0 0 0 0 0 0 0 0 127 0" result="hardAlpha"/><feOffset dy="2"/><feGaussianBlur stdDeviation="2"/><feColorMatrix values="0 0 0 0 0 0 0 0 0 0 0 0 0 0 0 0 0 0 0.16 0"/><feBlend in2="BackgroundImageFix" result="effect1_dropShadow_201_12"/><feBlend in="SourceGraphic" in2="effect1_dropShadow_201_12" result="shape"/></filter></defs></svg>