<svg width="219" height="179" viewBox="0 0 219 179" fill="none" xmlns="http://www.w3.org/2000/svg"><path d="M138.654 176.248l-4.67-1.979-3.204-23.563H88.12l-3.472 23.466-4.178 2.103a.996.996 0 00-.522 1.123.995.995 0 00.966.769h57.355a.993.993 0 00.972-.801 1.002 1.002 0 00-.587-1.118z" fill="#AEAEAE"/><path d="M214.449 153.094H4.89a4.139 4.139 0 01-2.93-1.228 4.192 4.192 0 01-1.212-2.951v-29.743h217.844v29.743a4.19 4.19 0 01-1.213 2.951 4.14 4.14 0 01-2.93 1.228z" fill="#CCC"/><path d="M218.811 133.229H.556V5.966a5.06 5.06 0 011.468-3.56A4.994 4.994 0 015.56.929h208.245a4.993 4.993 0 013.537 1.477 5.063 5.063 0 011.468 3.56V133.23z" fill="#3F3D56"/><path d="M205.775 123.992H13.592a3.85 3.85 0 01-2.727-1.138 3.9 3.9 0 01-1.132-2.745V14.049a3.901 3.901 0 011.132-2.745 3.85 3.85 0 012.727-1.139h192.183a3.85 3.85 0 012.727 1.14 3.898 3.898 0 011.132 2.744v106.06a3.898 3.898 0 01-1.132 2.745 3.848 3.848 0 01-2.727 1.138z" fill="#fff"/><path d="M43.242 43.769h-10.56v.966h10.56v-.966z" fill="#3BDC9C"/><path d="M51.242 47.312h-18.56v.966h18.56v-.966zm0 3.221h-18.56v.966h18.56v-.966z" fill="#E6E6E6"/><path d="M30.76 43.769h-8v8.052h8V43.77zm12.482 20.614h-10.56v.966h10.56v-.966z" fill="#3BDC9C"/><path d="M51.242 67.927h-18.56v.965h18.56v-.965zm0 3.543h-18.56v.965h18.56v-.966z" fill="#E6E6E6"/><path d="M30.76 64.383h-8v8.052h8v-8.052zM43.242 85.32h-10.56v.966h10.56v-.966z" fill="#3BDC9C"/><path d="M51.242 88.54h-18.56v1.29h18.56v-1.29zm0 3.544h-18.56v.966h18.56v-.966z" fill="#E6E6E6"/><path d="M30.76 85.32h-8v7.73h8v-7.73z" fill="#3BDC9C"/><path d="M100.89 68.813h-.303v.913h.303v-.913zm0 20.365h-.303v-1.945h.303v1.945zm0-3.89h-.303v-1.946h.303v1.946zm0-3.89h-.303v-1.946h.303v1.945zm0-3.891h-.303V75.56h.303v1.946zm0-3.89h-.303V71.67h.303v1.945zm0 17.506h-.303v.913h.303v-.913zm33.107-22.31h-.302v.913h.302v-.913zm0 20.365h-.302v-1.945h.302v1.945zm0-3.89h-.302v-1.946h.302v1.946zm0-3.89h-.302v-1.946h.302v1.945zm0-3.891h-.302V75.56h.302v1.946zm0-3.89h-.302V71.67h.302v1.945zm0 17.506h-.302v.913h.302v-.913zm16.701-40.17h-.303v.913h.303v-.913zm0 38.301h-.303v-1.87h.303v1.87zm0-3.74h-.303v-1.868h.303v1.869zm0-3.738h-.303v-1.87h.303v1.87zm0-3.739h-.303v-1.869h.303v1.87zm0-3.738h-.303v-1.87h.303v1.87zm0-3.74h-.303v-1.868h.303v1.869zm0-3.738h-.303v-1.87h.303v1.87zm0-3.738h-.303v-1.87h.303v1.87zm0-3.74h-.303v-1.869h.303v1.87zm0-3.738h-.303v-1.87h.303v1.87zm0 35.518h-.303v.913h.303v-.913zm16.534-47.473h-.303v.913h.303v-.913zm0 45.61h-.303v-1.862h.303v1.863zm0-3.724h-.303v-1.862h.303v1.862zm0-3.725h-.303V79.95h.303v1.862zm0-3.725h-.303v-1.862h.303v1.862zm0-3.725h-.303V72.5h.303v1.862zm0-3.724h-.303v-1.863h.303v1.863zm0-3.725h-.303v-1.863h.303v1.863zm0-3.725h-.303v-1.863h.303v1.863zm0-3.725h-.303v-1.863h.303v1.863zm0-3.725h-.303v-1.862h.303v1.862zm0-3.725h-.303V50.15h.303v1.862zm0-3.725h-.303v-1.862h.303v1.862zm0 42.836h-.303v.913h.303v-.913zm-49.713-34.54h-.303v.913h.303v-.913zm0 32.77h-.303v-1.77h.303v1.77zm0-3.54h-.303v-1.77h.303v1.77zm0-3.539h-.303v-1.77h.303v1.77zm0-3.54h-.303v-1.77h.303v1.77zm0-3.54h-.303v-1.77h.303v1.77zm0-3.54h-.303v-1.769h.303v1.77zm0-3.539h-.303v-1.77h.303v1.77zm0-3.54h-.303v-1.77h.303v1.77zm0-3.54h-.303v-1.769h.303v1.77zm0 30.088h-.303v.913h.303v-.913z" fill="#E5E5E5"/><path d="M184.001 92.46H83.904a.312.312 0 01-.313-.315V43.856a.316.316 0 01.313-.315.312.312 0 01.313.315V91.83h99.784a.315.315 0 010 .63z" fill="#3F3D56"/><path d="M133.983 69.237l-16.642-12.546-16.415 12.375-.376-.505 16.791-12.658 16.563 12.487 16.459-18.13.066-.027 16.603-6.733.234.586-16.537 6.706-16.746 18.445z" fill="#3F3D56"/><path d="M100.738 70.705c1.038 0 1.88-.847 1.88-1.892a1.886 1.886 0 00-1.88-1.892c-1.038 0-1.88.847-1.88 1.892s.842 1.892 1.88 1.892zm16.603-12.296c1.038 0 1.88-.847 1.88-1.892a1.886 1.886 0 00-1.88-1.892c-1.038 0-1.88.847-1.88 1.892 0 1.044.842 1.892 1.88 1.892zm16.603 12.296a1.885 1.885 0 001.879-1.892 1.885 1.885 0 00-1.879-1.892c-1.038 0-1.88.847-1.88 1.892s.842 1.892 1.88 1.892zm16.602-18.287c1.038 0 1.88-.847 1.88-1.892a1.886 1.886 0 00-1.88-1.892 1.885 1.885 0 00-1.879 1.892c0 1.045.841 1.892 1.879 1.892zm16.603-6.937a1.885 1.885 0 001.879-1.891 1.885 1.885 0 00-1.879-1.892c-1.038 0-1.88.847-1.88 1.892 0 1.044.842 1.891 1.88 1.891z" fill="#3BDC9C"/><path d="M64.77 10.165h-.64v113.827h.64V10.165z" fill="#E5E5E5"/></svg>