<svg width="209" height="189" viewBox="0 0 209 189" fill="none" xmlns="http://www.w3.org/2000/svg"><path d="M32.484 152.861H10.21a3.448 3.448 0 00-2.64 1.218 5.284 5.284 0 00-5.941 3.445 5.258 5.258 0 00.652 4.749 5.283 5.283 0 006.652 1.724l2.602 21.799a3.47 3.47 0 001.258 1.772 3.487 3.487 0 002.068.679h14.48c.745 0 1.47-.238 2.068-.679a3.47 3.47 0 001.259-1.772l3.141-28.442a3.463 3.463 0 00-.527-3.084 3.481 3.481 0 00-2.8-1.409zM6.632 163.025a3.781 3.781 0 01-2.669-1.102 3.761 3.761 0 010-5.324 3.778 3.778 0 012.669-1.103c.068 0 .133.017.2.02a3.43 3.43 0 00.053 1.838l1.594 5.169a3.734 3.734 0 01-1.847.502z" fill="#fff"/><path d="M91.587 145.277L76.918 89.951l-1.248-4.697a2.906 2.906 0 011.52-3.352l25.631-12.668a6 6 0 012.808-.62l36.213.9a6 6 0 012.586.658l18.502 9.476a6.002 6.002 0 013.264 5.255l.072 5.047 1.122 77.331c.007.44.062.879.164 1.307l2.654 11.105c.901 3.772-1.958 7.395-5.836 7.395H95.49c-3.82 0-6.666-3.52-5.868-7.254l4.664-21.832a6.001 6.001 0 00-.068-2.791l-2.632-9.934z" fill="#F3A447"/><path d="M183.701 177.948c.708 3.704-2.128 7.14-5.899 7.14h-9.369a6 6 0 01-5.943-5.175l-5.249-37.814a6.098 6.098 0 01-.055-1.001l1.566-53.147.126-4.216a3.67 3.67 0 013.145-3.522c.947-.137 1.916.095 2.667.688 2.537 2 4.445 4.087 6.07 7.05 2.65 4.601 4.857 11.171 4.376 19.982a6.626 6.626 0 00-.005.646c.077 1.819.433 11.003.009 17.336-.292 4.353 4.274 29.606 8.561 52.033zm-92.038-33.224l-.076.553-5.802 41.811H60.642c2.016-23.691 4.386-53.309 4.068-58.055-.472-7.052.024-17.656.024-17.656-.602-9.722 2.069-16.733 5.034-21.426a28.507 28.507 0 015.453-6.387c.471-.413.967-.796 1.486-1.147l4.174 1.352 1.09 6.182 9.692 54.773z" fill="#F3A447"/><path d="M94.561 38.222a26.968 26.968 0 004.564 15.008 27.067 27.067 0 0012.151 9.949 27.138 27.138 0 0015.645 1.537 27.1 27.1 0 0013.864-7.393 26.986 26.986 0 007.41-13.831 26.948 26.948 0 00-1.541-15.608 27.022 27.022 0 00-9.972-12.123 27.124 27.124 0 00-15.044-4.553 27.042 27.042 0 00-19.118 7.845 26.915 26.915 0 00-7.959 19.169z" fill="#FFC9C9"/><path d="M208.126 182.78a5.81 5.81 0 01-1.706 4.111 5.835 5.835 0 01-4.121 1.702H46.417a5.835 5.835 0 01-4.12-1.702 5.808 5.808 0 010-8.222 5.831 5.831 0 014.12-1.703h1.73a3.978 3.978 0 01-.153-1.065V96.506c0-1.34.533-2.624 1.483-3.57a5.067 5.067 0 013.578-1.48h142.606c1.342 0 2.63.532 3.579 1.48a5.043 5.043 0 011.482 3.57V175.9c0 .361-.051.719-.153 1.065h1.73a5.825 5.825 0 014.121 1.703 5.796 5.796 0 011.706 4.111z" fill="#B1650C"/><path d="M152.31 15.782a18.298 18.298 0 01-5.191-6.293 8.516 8.516 0 00-1.793-2.5l-5.12 3.928 3.129-5.437c-8.014-4.832-23.662-2.266-23.662-2.266-16.278-8.648-22.256 2.147-24.34 8.993a15.085 15.085 0 01-4.224 6.447c-4.016 3.82 2.308 11.25 2.308 11.25v.525l1.509 10.227s1.51-6.776 5.492-11.537c2.511-3.002 6.599-4.787 8.497-4.75 24.499.477 29.137 1.444 29.137 1.444s4.148 2.223 5.98 3.157c5.919 3.018 4.475 13.945 4.475 13.945l4.424-19.394c1.021-4.7.454-6.858-.621-7.739z" fill="#2F2E41"/></svg>