<svg width="141" height="246" viewBox="0 0 141 246" fill="none" xmlns="http://www.w3.org/2000/svg"><path d="M97.319 239.919h-4.711l-2.241-26.96 6.953.001-.001 26.959z" fill="#9E616A"/><path d="M100.3 245.91H81.427v-.283c0-2.308.774-4.522 2.151-6.154 1.378-1.632 3.246-2.549 5.195-2.549H100.3v8.986z" fill="#2F2E41"/><path d="M62.553 239.919h-5.385l-2.561-26.96 7.946.001v26.959z" fill="#9E616A"/><path d="M64.54 245.91H45.667v-.283c0-2.308.774-4.522 2.151-6.154 1.378-1.632 3.246-2.549 5.195-2.549H64.54v8.986z" fill="#2F2E41"/><path d="M47.653 91.648l-7.89-1.506-2.55 5.07-27.432 8.638.074.468c-.775-1.001-1.794-1.662-2.901-1.884-1.107-.222-2.243.008-3.235.655-.992.646-1.786 1.674-2.263 2.929a7.753 7.753 0 00-.379 4.022c.23 1.356.813 2.582 1.658 3.493s1.907 1.457 3.026 1.556c1.119.098 2.233-.256 3.174-1.01.941-.754 1.658-1.866 2.042-3.168l33.222-8.56 3.454-10.703zm81.132-5.551a4.71 4.71 0 00-1.944.425l.161-.32-35.736-21.023-4.873 8.964 37.155 18.77a6.437 6.437 0 001.216 3.103c.659.88 1.526 1.525 2.499 1.858a4.67 4.67 0 002.984.022c.977-.32 1.851-.952 2.52-1.822a6.425 6.425 0 001.25-3.085 6.77 6.77 0 00-.417-3.364c-.42-1.052-1.098-1.945-1.952-2.57a4.829 4.829 0 00-2.863-.958z" fill="#9E616A"/><path d="M72.384 29.532c1.381-10.08-4.4-19.58-12.912-21.215-8.512-1.636-16.533 5.21-17.914 15.291-1.382 10.081 4.4 19.58 12.912 21.216 8.512 1.636 16.532-5.21 17.914-15.292z" fill="#2F2E41"/><path d="M56.593 45.209c5.486 0 9.934-5.365 9.934-11.983 0-6.617-4.448-11.982-9.934-11.982-5.486 0-9.933 5.365-9.933 11.982 0 6.618 4.447 11.983 9.933 11.983z" fill="#A0616A"/><path d="M56.593 28.234c6.035 0 10.927-3.353 10.927-7.49 0-4.135-4.892-7.488-10.927-7.488-6.034 0-10.926 3.353-10.926 7.489 0 4.136 4.892 7.489 10.926 7.489z" fill="#2F2E41"/><path d="M58.083 16.252c3.566 0 6.457-3.577 6.457-7.989 0-4.411-2.89-7.988-6.457-7.988-3.566 0-6.456 3.577-6.456 7.988 0 4.412 2.89 7.989 6.456 7.989z" fill="#2F2E41"/><path d="M52.19 62.446l.569-6.587c.142-1.645.948-3.167 2.326-4.076 3.316-2.19 9.65-5.625 12.288-1.986L89.19 94.746s13.563 5.806 13.083 27.976l-.648 107.163-15.38 2.03-9.338-83.55-8.438 86.562-17.905-.675 1.61-57.026 8.538-55.28-.081-18.343-3.76-7.403s-6.889-3.332-7.081-12.748l-.151-13.235 2.55-7.77z" fill="#ECF5FF"/><path d="M65.533 53.117c-1.658-1.638-.054-4.293 2.145-3.521 11.81 4.144 31.391 11.899 29.49 17.188-2.708 7.527-7.783 9.904-7.783 9.904l-19.623-9.111-4.229-14.46zM54.889 63.25L52.3 60.186s-20.64 32.15-14.398 35.743c6.241 3.592 11.482 1.706 11.482 1.706l10.188-20.737L54.89 63.25z" fill="#ECF5FF"/><path d="M14.226 163.672a6 6 0 007.318 4.851l112.058-26.856a6 6 0 004.521-6.819l-8.37-50.337a6 6 0 00-7.317-4.851L10.377 106.516a6 6 0 00-4.52 6.818l8.37 50.338z" fill="#fff"/><path d="M139.102 135.557a6 6 0 01-4.534 6.834L19.945 169.544a6 6 0 01-7.3-4.843l-8.76-52.076a6 6 0 014.534-6.834l114.623-27.153a6 6 0 017.3 4.844l8.76 52.075zM14.006 162.28a6 6 0 007.3 4.844l111.222-26.348a6 6 0 004.534-6.834l-8.081-48.04a6 6 0 00-7.3-4.843L10.459 107.407a6 6 0 00-4.534 6.833l8.08 48.04z" fill="#E4E4E4"/><path d="M120.16 98.827L19.688 122.579l.522 3.103 100.473-23.753-.523-3.102zm2.036 12.08L21.723 134.659l.523 3.102 100.473-23.752-.523-3.102zm2.048 12.149L23.771 146.809l.523 3.102 100.473-23.752-.523-3.103z" fill="#E4E4E4"/><path d="M71.715 117.315l-3.418.765a.877.877 0 01-.72-.161 1.09 1.09 0 01-.41-.683l-1.615-9.068c-.05-.28.002-.57.143-.807a.964.964 0 01.61-.458l3.418-.764a.877.877 0 01.72.16c.212.158.36.404.41.684l1.615 9.067c.05.28-.002.57-.143.807a.96.96 0 01-.61.458zm39.733 3.864l-3.418.891a.78.78 0 01-.72-.187c-.212-.185-.359-.471-.409-.798l-1.616-10.578a1.585 1.585 0 01.143-.942c.142-.277.361-.469.611-.534l3.417-.892a.785.785 0 01.721.187c.212.185.359.472.409.798l1.616 10.579c.049.326-.002.665-.144.941-.141.277-.36.469-.61.535z" fill="#00A1FF"/></svg>