<svg width="30" height="47" viewBox="0 0 30 47" fill="none" xmlns="http://www.w3.org/2000/svg"><path d="M15.054 46.95c1.208 0 2.281-.67 2.281-2.281V42.52c7.222-.778 11.732-5.02 11.732-11.194 0-5.316-3.195-8.537-9.826-9.987l-5.449-1.235c-3.41-.751-5.074-2.308-5.074-4.59 0-2.738 2.363-4.725 6.067-4.725 3.007 0 5.1 1.02 7.436 3.624 1.182 1.235 2.094 1.691 3.33 1.691 1.503 0 2.657-1.046 2.657-2.604 0-1.503-.886-3.14-2.39-4.617-1.986-1.88-4.966-3.114-8.321-3.543V3.112c0-1.584-1.074-2.255-2.31-2.255-1.207 0-2.28.645-2.28 2.255V5.26c-6.954.644-11.383 4.805-11.383 10.765 0 5.208 3.194 8.671 9.315 10.04l5.45 1.262c3.973.94 5.61 2.335 5.61 4.698 0 3.06-2.389 4.993-6.657 4.993-3.195 0-5.853-1.208-8.269-3.812-1.369-1.37-2.12-1.665-3.14-1.665-1.638 0-2.873 1.048-2.873 2.846 0 1.584.913 3.222 2.55 4.644 2.148 1.96 5.503 3.168 9.235 3.517v2.12c0 1.612 1.074 2.283 2.309 2.283z" fill="#3BDC9C"/></svg>