<svg width="51" height="51" viewBox="0 0 51 51" fill="none" xmlns="http://www.w3.org/2000/svg"><path fill-rule="evenodd" clip-rule="evenodd" d="M24.167 9.667a4.833 4.833 0 100-9.667 4.833 4.833 0 000 9.667zm-20.542 0a3.625 3.625 0 100-7.25 3.625 3.625 0 000 7.25zM14.5 14.5a2.417 2.417 0 11-4.833 0 2.417 2.417 0 014.833 0zm36.246 14.435a1.876 1.876 0 00-1.282-1.897L19.391 17.012a1.882 1.882 0 00-1.922.455 1.866 1.866 0 00-.453 1.923l10.023 30.075a1.876 1.876 0 001.897 1.282 1.873 1.873 0 001.725-1.502l2.286-11.24 9.202 8.73a3.625 3.625 0 004.99-5.26l-9.014-8.552 11.12-2.26a1.877 1.877 0 001.501-1.728zM14.5 29a4.833 4.833 0 11-9.667 0 4.833 4.833 0 019.667 0z" fill="#7272DE"/></svg>