<svg width="58" height="58" viewBox="0 0 58 58" fill="none" xmlns="http://www.w3.org/2000/svg"><path d="M49.5 8.5C43.833 2.833 37 0 29 0 20.879 0 14.046 2.833 8.5 8.5 2.833 14.167 0 21 0 29c0 8.121 2.833 14.955 8.5 20.5C14.046 55.167 20.879 58 29 58c8 0 14.833-2.833 20.5-8.5C55.167 43.955 58 37.121 58 29c0-8-2.833-14.833-8.5-20.5zM35.545 20.682c0-2.455 1.213-3.682 3.637-3.682.94 0 1.773.379 2.5 1.136.727.697 1.09 1.546 1.09 2.546 0 2.424-1.196 3.636-3.59 3.636-2.424 0-3.637-1.212-3.637-3.636zm-14.181-2.546c.727.697 1.09 1.546 1.09 2.546 0 2.424-1.212 3.636-3.636 3.636-2.424 0-3.636-1.212-3.636-3.636 0-2.455 1.212-3.682 3.636-3.682 1 0 1.849.379 2.546 1.136zm-3.91 24.955c-3.181-3.212-4.772-7.076-4.772-11.591 4.333-.697 9.364-1.121 15.09-1.273 5.516-.09 11.35.334 17.5 1.273 0 4.515-1.56 8.379-4.681 11.59-3.273 3.183-7.136 4.774-11.591 4.774-4.576 0-8.424-1.591-11.546-4.773z" fill="#00A1FF"/></svg>