<svg width="50" height="44" viewBox="0 0 50 44" fill="none" xmlns="http://www.w3.org/2000/svg"><path fill-rule="evenodd" clip-rule="evenodd" d="M17.75 19.583c5.331 0 9.667-4.335 9.667-9.666C27.417 4.585 23.08.25 17.75.25c-5.331 0-9.667 4.335-9.667 9.667 0 5.33 4.336 9.666 9.667 9.666zm19.333 4.834c3.998 0 7.25-3.253 7.25-7.25 0-3.998-3.252-7.25-7.25-7.25-3.997 0-7.25 3.252-7.25 7.25 0 3.997 3.253 7.25 7.25 7.25zm12.084 14.5a2.416 2.416 0 01-2.417 2.416H34.667a2.416 2.416 0 01-2.417 2.417h-29a2.416 2.416 0 01-2.417-2.417c0-9.328 7.591-16.916 16.917-16.916 4.657 0 8.876 1.892 11.938 4.944a12.068 12.068 0 017.395-2.528c6.663 0 12.084 5.42 12.084 12.084z" fill="#F3A447"/></svg>